<?xml version="1.0" encoding="iso-8859-1"?>
<!-- Generator: Adobe Illustrator 16.0.0, SVG Export Plug-In . SVG Version: 6.00 Build 0)  -->
<!DOCTYPE svg PUBLIC "-//W3C//DTD SVG 1.1//EN" "http://www.w3.org/Graphics/SVG/1.1/DTD/svg11.dtd">
<svg version="1.1" id="&#x56FE;&#x5C42;_1" xmlns="http://www.w3.org/2000/svg" xmlns:xlink="http://www.w3.org/1999/xlink" x="0px"
	 y="0px" width="500px" height="500px" viewBox="0 0 500 500" style="enable-background:new 0 0 500 500;" xml:space="preserve">
<g id="&#x592A;&#x9633;">
	<linearGradient id="SVGID_1_" gradientUnits="userSpaceOnUse" x1="250.4995" y1="29" x2="250.4995" y2="470.0005">
		<stop  offset="0" stop-color="#FFDC80"/>
		<stop  offset="1" stop-color="#FF9000"/>
	</linearGradient>
	<path fill="url(#SVGID_1_)" d="M393.906,249.507c0,79.184-64.201,143.391-143.396,143.391
		c-79.196,0-143.397-64.207-143.397-143.391c0-79.198,64.202-143.405,143.397-143.405
		C329.705,106.102,393.906,170.309,393.906,249.507z M84,248.675c0-7-5.675-12.675-12.675-12.675H42.675
		c-7,0-12.675,5.675-12.675,12.675v0.649c0,7,5.675,12.675,12.675,12.675h28.649c7,0,12.675-5.675,12.675-12.675V248.675z
		 M131.96,366.571c-4.95-4.949-12.975-4.949-17.925,0.001L93.847,386.76c-4.95,4.949-4.95,12.975,0,17.926l0.785,0.785
		c4.95,4.949,12.975,4.948,17.925-0.002l20.188-20.187c4.95-4.95,4.95-12.976,0-17.926L131.96,366.571z M263,428.677
		c0-7.001-5.676-12.677-12.676-12.677h-0.647c-7.001,0-12.676,5.676-12.676,12.677v28.646c0,7.001,5.675,12.677,12.676,12.677h0.647
		c7,0,12.676-5.676,12.676-12.677V428.677z M386.278,367.266c-4.95-4.951-12.976-4.951-17.926,0l-0.784,0.784
		c-4.95,4.949-4.95,12.975,0,17.926l20.188,20.187c4.949,4.95,12.977,4.951,17.927,0l0.783-0.783c4.95-4.95,4.949-12.977,0-17.927
		L386.278,367.266z M429.786,237c-7.001,0-12.786,5.445-12.786,12.445v1.108c0,7.001,5.785,12.446,12.786,12.446h28.549
		c6.999,0,12.665-5.445,12.665-12.447v-1.107c0-7.001-5.666-12.446-12.665-12.446H429.786z M368.27,113.724
		c-4.951,4.951-4.951,12.99-0.001,17.94l0.784,0.784c4.95,4.95,12.976,4.937,17.927-0.014l20.187-20.187
		c4.95-4.95,4.95-12.962-0.002-17.914l-0.782-0.782c-4.95-4.951-12.976-4.964-17.926-0.014L368.27,113.724z M238,70.224
		C238,77.225,243.455,83,250.456,83h1.108C258.565,83,264,77.225,264,70.223V41.675c0-7-5.436-12.675-12.438-12.675h-1.105
		C243.455,29,238,34.675,238,41.675V70.224z M114.728,131.749c4.95,4.95,12.991,4.936,17.94-0.014l0.784-0.784
		c4.951-4.951,4.936-12.962-0.015-17.913L113.25,92.851c-4.95-4.95-12.961-4.964-17.913-0.012l-0.782,0.782
		c-4.951,4.951-4.965,12.991-0.016,17.941L114.728,131.749z"/>
</g>
</svg>
