<?xml version="1.0" encoding="iso-8859-1"?>
<!-- Generator: Adobe Illustrator 16.0.0, SVG Export Plug-In . SVG Version: 6.00 Build 0)  -->
<!DOCTYPE svg PUBLIC "-//W3C//DTD SVG 1.1//EN" "http://www.w3.org/Graphics/SVG/1.1/DTD/svg11.dtd">
<svg version="1.1" id="&#x56FE;&#x5C42;_1" xmlns="http://www.w3.org/2000/svg" xmlns:xlink="http://www.w3.org/1999/xlink" x="0px"
	 y="0px" width="500px" height="500px" viewBox="0 0 500 500" style="enable-background:new 0 0 500 500;" xml:space="preserve">
<g id="&#x592A;&#x9633;">
	<linearGradient id="SVGID_1_" gradientUnits="userSpaceOnUse" x1="302.5" y1="61" x2="302.5" y2="402.0005">
		<stop  offset="0" stop-color="#FFDC80"/>
		<stop  offset="1" stop-color="#FF9000"/>
	</linearGradient>
	<path fill="url(#SVGID_1_)" d="M413.438,231.474c0,61.238-49.651,110.894-110.898,110.894s-110.898-49.656-110.898-110.894
		c0-61.25,49.651-110.904,110.898-110.904S413.438,170.225,413.438,231.474z M174,230.803c0-5.414-4.389-9.803-9.803-9.803h-22.395
		c-5.414,0-9.803,4.389-9.803,9.803v0.395c0,5.414,4.389,9.803,9.803,9.803h22.395c5.414,0,9.803-4.389,9.803-9.803V230.803z
		 M210.856,322.008c-3.828-3.827-10.035-3.827-13.863,0.001l-15.612,15.612c-3.828,3.827-3.828,10.034,0,13.863l0.607,0.606
		c3.828,3.828,10.035,3.827,13.863-0.001l15.612-15.611c3.828-3.828,3.828-10.035,0-13.863L210.856,322.008z M312,369.804
		c0-5.414-4.389-9.804-9.803-9.804h-0.395c-5.414,0-9.803,4.39-9.803,9.804v22.393c0,5.414,4.389,9.804,9.803,9.804h0.395
		c5.414,0,9.803-4.39,9.803-9.804V369.804z M407.538,322.545c-3.829-3.829-10.035-3.829-13.863,0l-0.606,0.606
		c-3.828,3.827-3.828,10.034,0,13.863l15.611,15.611c3.828,3.828,10.036,3.829,13.864,0l0.605-0.605
		c3.829-3.828,3.828-10.036,0-13.864L407.538,322.545z M441.186,222c-5.415,0-10.186,4.013-10.186,9.427v0.857
		c0,5.414,4.771,9.716,10.186,9.716h22.078c5.413,0,9.736-4.302,9.736-9.717v-0.856c0-5.414-4.323-9.427-9.736-9.427H441.186z
		 M393.61,126.464c-3.829,3.829-3.829,10.046-0.001,13.875l0.606,0.606c3.828,3.828,10.035,3.818,13.864-0.011l15.611-15.611
		c3.828-3.828,3.828-10.024-0.001-13.854l-0.604-0.605c-3.829-3.829-10.036-3.839-13.864-0.011L393.61,126.464z M293,92.822
		c0,5.415,4.083,10.178,9.497,10.178h0.857c5.415,0,9.646-4.763,9.646-10.178V70.744c0-5.414-4.231-9.744-9.647-9.744h-0.854
		c-5.415,0-9.498,4.33-9.498,9.744V92.822z M197.529,140.403c3.828,3.829,10.047,3.818,13.875-0.011l0.606-0.606
		c3.829-3.829,3.817-10.024-0.012-13.853l-15.612-15.612c-3.828-3.828-10.023-3.839-13.853-0.01l-0.605,0.605
		c-3.829,3.829-3.84,10.046-0.012,13.875L197.529,140.403z"/>
</g>
<g id="cloud2">
	<g>
		<linearGradient id="SVGID_2_" gradientUnits="userSpaceOnUse" x1="278.9609" y1="437.8975" x2="278.9609" y2="226.0313">
			<stop  offset="0" stop-color="#C3DEFF"/>
			<stop  offset="0.9531" stop-color="#ECF5FF"/>
		</linearGradient>
		<path fill="url(#SVGID_2_)" d="M321.036,226.532C262.957,226.532,215.812,273,215.162,331H131v107h182.278
			c2.563,0,5.149,0.398,7.758,0.398c58.477,0,105.886-47.449,105.886-105.934C426.922,273.987,379.513,226.532,321.036,226.532z"/>
		<linearGradient id="SVGID_3_" gradientUnits="userSpaceOnUse" x1="246.0742" y1="372.9688" x2="246.0742" y2="141.2715">
			<stop  offset="0.2166" stop-color="#D0E5FF"/>
			<stop  offset="0.8809" stop-color="#F6FAFF"/>
		</linearGradient>
		<path fill="url(#SVGID_3_)" d="M361.923,257.666c0,63.985-51.867,115.851-115.847,115.851
			c-63.985,0-115.851-51.865-115.851-115.851c0-63.979,51.866-115.847,115.851-115.847
			C310.056,141.819,361.923,193.687,361.923,257.666z"/>
		<linearGradient id="SVGID_4_" gradientUnits="userSpaceOnUse" x1="129.6987" y1="438.002" x2="129.6987" y2="220.9839">
			<stop  offset="0" stop-color="#CBE2FF"/>
			<stop  offset="0.8845" stop-color="#FFFFFF"/>
		</linearGradient>
		<path fill="url(#SVGID_4_)" d="M238.208,330.005c0,59.931-48.58,108.51-108.507,108.51
			c-59.931,0-108.511-48.579-108.511-108.51c0-59.926,48.58-108.509,108.511-108.509
			C189.628,221.496,238.208,270.079,238.208,330.005z"/>
	</g>
</g>
</svg>
