<?xml version="1.0" encoding="iso-8859-1"?>
<!-- Generator: Adobe Illustrator 16.0.0, SVG Export Plug-In . SVG Version: 6.00 Build 0)  -->
<!DOCTYPE svg PUBLIC "-//W3C//DTD SVG 1.1//EN" "http://www.w3.org/Graphics/SVG/1.1/DTD/svg11.dtd">
<svg version="1.1" id="&#x56FE;&#x5C42;_1" xmlns="http://www.w3.org/2000/svg" xmlns:xlink="http://www.w3.org/1999/xlink" x="0px"
	 y="0px" width="500px" height="500px" viewBox="0 0 500 500" style="enable-background:new 0 0 500 500;" xml:space="preserve">
<g id="cloud2">
	<g>
		<linearGradient id="SVGID_1_" gradientUnits="userSpaceOnUse" x1="304.377" y1="333.7793" x2="304.377" y2="123.2808">
			<stop  offset="0" stop-color="#C3DEFF"/>
			<stop  offset="0.9531" stop-color="#ECF5FF"/>
		</linearGradient>
		<path fill="url(#SVGID_1_)" d="M346.448,123.778C288.688,123.778,241.801,170,241.154,228H157v106h181.733
			c2.548,0,5.12,0.277,7.715,0.277c58.156,0,105.306-47.087,105.306-105.25C451.754,170.87,404.604,123.778,346.448,123.778z"/>
		<linearGradient id="SVGID_2_" gradientUnits="userSpaceOnUse" x1="271.8975" y1="269.085" x2="271.8975" y2="38.6582">
			<stop  offset="0.2166" stop-color="#D0E5FF"/>
			<stop  offset="0.8809" stop-color="#F6FAFF"/>
		</linearGradient>
		<path fill="url(#SVGID_2_)" d="M387.111,154.415c0,63.634-51.584,115.215-115.213,115.215
			c-63.634,0-115.215-51.581-115.215-115.215c0-63.629,51.581-115.212,115.215-115.212
			C335.527,39.203,387.111,90.786,387.111,154.415z"/>
		<linearGradient id="SVGID_3_" gradientUnits="userSpaceOnUse" x1="156.1606" y1="333.7617" x2="156.1606" y2="117.9341">
			<stop  offset="0" stop-color="#CBE2FF"/>
			<stop  offset="0.8845" stop-color="#FFFFFF"/>
		</linearGradient>
		<path fill="url(#SVGID_3_)" d="M264.074,226.356c0,59.603-48.313,107.915-107.913,107.915
			c-59.602,0-107.916-48.313-107.916-107.915c0-59.597,48.313-107.913,107.916-107.913
			C215.761,118.443,264.074,166.759,264.074,226.356z"/>
	</g>
</g>
<g id="&#x5927;&#x96E8;&#x6EF4;">
	<path fill="#45B1FF" d="M136.665,443.456c-4.38,7.586-14.083,10.186-21.669,5.805l0,0
		c-7.587-4.38-10.188-14.083-5.807-21.669l31.728-54.956c4.38-7.586,14.083-10.186,21.671-5.805l0,0
		c7.586,4.38,10.186,14.083,5.806,21.669L136.665,443.456z"/>
</g>
<g id="&#x5927;&#x96E8;&#x6EF4;_1_">
	<path fill="#45B1FF" d="M197.998,443.456c-4.38,7.586-14.083,10.186-21.669,5.805l0,0
		c-7.587-4.38-10.188-14.083-5.807-21.669l31.728-54.956c4.38-7.586,14.083-10.186,21.671-5.805l0,0
		c7.586,4.38,10.186,14.083,5.806,21.669L197.998,443.456z"/>
</g>
<g id="&#x5927;&#x96E8;&#x6EF4;_2_">
	<path fill="#45B1FF" d="M259.331,443.456c-4.381,7.586-14.084,10.186-21.67,5.805l0,0
		c-7.587-4.38-10.188-14.083-5.807-21.669l31.728-54.956c4.381-7.586,14.084-10.186,21.671-5.805l0,0
		c7.586,4.38,10.187,14.083,5.806,21.669L259.331,443.456z"/>
</g>
<g id="&#x5927;&#x96E8;&#x6EF4;_3_">
	<path fill="#45B1FF" d="M320.665,443.456c-4.381,7.586-14.084,10.186-21.67,5.805l0,0
		c-7.587-4.38-10.188-14.083-5.807-21.669l31.728-54.956c4.381-7.586,14.084-10.186,21.671-5.805l0,0
		c7.586,4.38,10.187,14.083,5.806,21.669L320.665,443.456z"/>
</g>
</svg>
