<?xml version="1.0" encoding="iso-8859-1"?>
<!-- Generator: Adobe Illustrator 16.0.0, SVG Export Plug-In . SVG Version: 6.00 Build 0)  -->
<!DOCTYPE svg PUBLIC "-//W3C//DTD SVG 1.1//EN" "http://www.w3.org/Graphics/SVG/1.1/DTD/svg11.dtd">
<svg version="1.1" id="&#x56FE;&#x5C42;_1" xmlns="http://www.w3.org/2000/svg" xmlns:xlink="http://www.w3.org/1999/xlink" x="0px"
	 y="0px" width="500px" height="500px" viewBox="0 0 500 500" style="enable-background:new 0 0 500 500;" xml:space="preserve">
<g id="&#x592A;&#x9633;">
	<linearGradient id="SVGID_1_" gradientUnits="userSpaceOnUse" x1="298" y1="30" x2="298" y2="362.0005">
		<stop  offset="0" stop-color="#FFDC80"/>
		<stop  offset="1" stop-color="#FF9000"/>
	</linearGradient>
	<path fill="url(#SVGID_1_)" d="M405.6,195.787c0,59.534-48.27,107.807-107.811,107.807
		c-59.542,0-107.811-48.273-107.811-107.807c0-59.544,48.269-107.816,107.811-107.816C357.33,87.97,405.6,136.243,405.6,195.787z
		 M173,194.53c0-5.263-4.267-9.53-9.53-9.53h-21.94c-5.263,0-9.53,4.267-9.53,9.53v0.94c0,5.263,4.267,9.53,9.53,9.53h21.94
		c5.263,0,9.53-4.267,9.53-9.53V194.53z M208.659,283.801c-3.722-3.722-9.755-3.722-13.477,0l-15.178,15.178
		c-3.721,3.722-3.721,9.755,0,13.478l0.59,0.59c3.721,3.722,9.755,3.721,13.477-0.001l15.178-15.177
		c3.722-3.722,3.722-9.756,0-13.478L208.659,283.801z M307,330.53c0-5.264-4.267-9.53-9.53-9.53h-0.939
		c-5.264,0-9.53,4.267-9.53,9.53v21.939c0,5.264,4.267,9.53,9.53,9.53h0.939c5.264,0,9.53-4.267,9.53-9.53V330.53z M399.864,284.322
		c-3.722-3.723-9.756-3.723-13.478,0l-0.589,0.589c-3.722,3.722-3.722,9.756,0,13.478l15.177,15.178
		c3.722,3.721,9.757,3.722,13.479,0l0.589-0.589c3.722-3.722,3.722-9.757,0-13.479L399.864,284.322z M464,195.538
		c0-5.268-4.271-9.538-9.538-9.538h-21.924c-5.268,0-9.538,4.27-9.538,9.538v0.925c0,5.268,4.271,9.538,9.538,9.538h21.924
		c5.268,0,9.538-4.27,9.538-9.538V195.538z M386.324,93.7c-3.722,3.722-3.722,9.767,0,13.489l0.589,0.589
		c3.723,3.722,9.756,3.711,13.479-0.011l15.177-15.177c3.722-3.722,3.722-9.746-0.001-13.468l-0.588-0.588
		c-3.723-3.722-9.757-3.732-13.478-0.011L386.324,93.7z M308,39.531c0-5.264-4.273-9.531-9.545-9.531h-0.91
		c-5.271,0-9.545,4.267-9.545,9.531v21.938c0,5.264,4.273,9.531,9.545,9.531h0.91c5.271,0,9.545-4.267,9.545-9.531V39.531z
		 M195.703,107.251c3.722,3.722,9.767,3.711,13.488-0.01l0.589-0.589c3.722-3.722,3.711-9.745-0.011-13.467l-15.177-15.177
		c-3.721-3.721-9.745-3.732-13.467-0.009l-0.588,0.588c-3.722,3.722-3.733,9.767-0.012,13.489L195.703,107.251z"/>
</g>
<g id="cloud2">
	<g>
		<linearGradient id="SVGID_2_" gradientUnits="userSpaceOnUse" x1="281.7168" y1="377.7949" x2="281.7168" y2="177.8525">
			<stop  offset="0" stop-color="#C3DEFF"/>
			<stop  offset="0.9531" stop-color="#ECF5FF"/>
		</linearGradient>
		<path fill="url(#SVGID_2_)" d="M321.515,178.325c-54.806,0-99.294,44.675-99.908,98.675H142v101h172.194
			c2.418,0,4.858,0.268,7.32,0.268c55.182,0,99.919-44.783,99.919-99.972C421.434,223.113,376.696,178.325,321.515,178.325z"/>
		<linearGradient id="SVGID_3_" gradientUnits="userSpaceOnUse" x1="250.7773" y1="316.416" x2="250.7773" y2="97.7749">
			<stop  offset="0.2166" stop-color="#D0E5FF"/>
			<stop  offset="0.8809" stop-color="#F6FAFF"/>
		</linearGradient>
		<path fill="url(#SVGID_3_)" d="M360.098,207.61c0,60.379-48.945,109.322-109.319,109.322
			c-60.379,0-109.322-48.943-109.322-109.322c0-60.374,48.943-109.319,109.322-109.319
			C311.152,98.291,360.098,147.236,360.098,207.61z"/>
		<linearGradient id="SVGID_4_" gradientUnits="userSpaceOnUse" x1="140.96" y1="377.7832" x2="140.9599" y2="172.9946">
			<stop  offset="0" stop-color="#CBE2FF"/>
			<stop  offset="0.8845" stop-color="#FFFFFF"/>
		</linearGradient>
		<circle fill="url(#SVGID_4_)" cx="140.96" cy="275.872" r="102.394"/>
	</g>
</g>
<g id="MJJ&#x96EA;&#x82B1;_2_">
	<path fill="#C9E2FF" d="M176,434h-7.064l3.613-6.188c2.2-3.811,0.883-8.692-2.928-10.893l-0.243-0.123
		c-3.811-2.2-8.728-0.873-10.928,2.937L155,425.715l-3.451-5.975c-2.2-3.81-7.118-5.127-10.928-2.927l-0.243,0.142
		c-3.811,2.2-5.128,7.047-2.928,10.857l3.613,6.188H134c-4.418,0-8,3.582-8,8s3.582,8,8,8h6.9l-3.45,6.047
		c-2.2,3.81-0.882,8.763,2.928,10.963l0.242,0.157c3.811,2.2,8.728,0.891,10.928-2.919l3.451-5.972l3.451,5.979
		c2.2,3.81,7.118,5.129,10.929,2.929l0.241-0.14c3.811-2.2,5.129-7.188,2.929-10.997l-3.45-6.047H176c4.418,0,8-3.582,8-8
		S180.418,434,176,434z"/>
</g>
<g id="MJJ&#x96EA;&#x82B1;_1_">
	<path fill="#C9E2FF" d="M257,434h-7.064l3.613-6.188c2.2-3.811,0.883-8.692-2.928-10.893l-0.243-0.123
		c-3.811-2.2-8.728-0.873-10.928,2.937L236,425.715l-3.451-5.975c-2.2-3.81-7.118-5.127-10.928-2.927l-0.243,0.142
		c-3.811,2.2-5.128,7.047-2.928,10.857l3.613,6.188H215c-4.418,0-8,3.582-8,8s3.582,8,8,8h6.9l-3.45,6.047
		c-2.2,3.81-0.882,8.763,2.928,10.963l0.242,0.157c3.811,2.2,8.728,0.891,10.928-2.919l3.451-5.972l3.451,5.979
		c2.2,3.81,7.118,5.129,10.929,2.929l0.241-0.14c3.811-2.2,5.129-7.188,2.929-10.997l-3.45-6.047H257c4.418,0,8-3.582,8-8
		S261.418,434,257,434z"/>
</g>
<g id="MJJ&#x96EA;&#x82B1;">
	<path fill="#C9E2FF" d="M338,434h-7.064l3.613-6.188c2.2-3.811,0.883-8.692-2.928-10.893l-0.243-0.123
		c-3.811-2.2-8.728-0.873-10.928,2.937l-3.45,5.981l-3.451-5.975c-2.2-3.81-7.117-5.127-10.929-2.927l-0.243,0.142
		c-3.81,2.2-5.128,7.047-2.928,10.857l3.613,6.188H296c-4.419,0-8,3.582-8,8s3.581,8,8,8h6.9l-3.45,6.047
		c-2.2,3.81-0.882,8.763,2.928,10.963l0.242,0.157c3.812,2.2,8.729,0.891,10.929-2.919l3.451-5.972l3.45,5.979
		c2.2,3.81,7.118,5.129,10.929,2.929l0.241-0.14c3.811-2.2,5.129-7.188,2.929-10.997l-3.45-6.047H338c4.418,0,8-3.582,8-8
		S342.418,434,338,434z"/>
</g>
</svg>
