<?xml version="1.0" encoding="iso-8859-1"?>
<!-- Generator: Adobe Illustrator 16.0.0, SVG Export Plug-In . SVG Version: 6.00 Build 0)  -->
<!DOCTYPE svg PUBLIC "-//W3C//DTD SVG 1.1//EN" "http://www.w3.org/Graphics/SVG/1.1/DTD/svg11.dtd">
<svg version="1.1" id="&#x56FE;&#x5C42;_1" xmlns="http://www.w3.org/2000/svg" xmlns:xlink="http://www.w3.org/1999/xlink" x="0px"
	 y="0px" width="500px" height="500px" viewBox="0 0 500 500" style="enable-background:new 0 0 500 500;" xml:space="preserve">
<g id="cloud2">
	<g>
		<linearGradient id="SVGID_1_" gradientUnits="userSpaceOnUse" x1="303.6846" y1="327.7793" x2="303.6846" y2="117.5796">
			<stop  offset="0" stop-color="#C3DEFF"/>
			<stop  offset="0.9531" stop-color="#ECF5FF"/>
		</linearGradient>
		<path fill="url(#SVGID_1_)" d="M345.265,118.076c-57.65,0-104.448,45.924-105.094,103.924H157v106h180.564
			c2.544,0,5.11,0.276,7.7,0.276c58.046,0,105.105-47.048,105.105-105.101C450.37,165.129,403.311,118.076,345.265,118.076z"/>
		<linearGradient id="SVGID_2_" gradientUnits="userSpaceOnUse" x1="270.8555" y1="263.208" x2="270.8555" y2="33.2192">
			<stop  offset="0.2166" stop-color="#D0E5FF"/>
			<stop  offset="0.8809" stop-color="#F6FAFF"/>
		</linearGradient>
		<path fill="url(#SVGID_2_)" d="M385.851,148.756c0,63.513-51.485,114.996-114.993,114.996
			c-63.513,0-114.997-51.483-114.997-114.996c0-63.508,51.483-114.993,114.997-114.993
			C334.365,33.763,385.851,85.248,385.851,148.756z"/>
		<linearGradient id="SVGID_3_" gradientUnits="userSpaceOnUse" x1="155.3384" y1="327.7617" x2="155.3384" y2="112.3442">
			<stop  offset="0" stop-color="#CBE2FF"/>
			<stop  offset="0.8845" stop-color="#FFFFFF"/>
		</linearGradient>
		<path fill="url(#SVGID_3_)" d="M263.047,220.561c0,59.489-48.221,107.71-107.707,107.71
			c-59.489,0-107.711-48.221-107.711-107.71c0-59.484,48.222-107.708,107.711-107.708
			C214.826,112.853,263.047,161.077,263.047,220.561z"/>
	</g>
</g>
<g id="MJJ&#x96EA;&#x82B1;">
	<path fill="#C9E2FF" d="M206,371h-7.064l3.613-6.188c2.2-3.811,0.883-8.692-2.928-10.893l-0.243-0.123
		c-3.811-2.2-8.728-0.873-10.928,2.937L185,362.715l-3.451-5.975c-2.2-3.81-7.118-5.127-10.928-2.927l-0.243,0.142
		c-3.811,2.2-5.128,7.047-2.928,10.857l3.613,6.188H164c-4.418,0-8,3.582-8,8s3.582,8,8,8h6.9l-3.45,6.047
		c-2.2,3.81-0.882,8.763,2.928,10.963l0.242,0.157c3.811,2.2,8.728,0.891,10.928-2.919l3.451-5.972l3.451,5.979
		c2.2,3.81,7.118,5.129,10.929,2.929l0.241-0.14c3.811-2.2,5.129-7.188,2.929-10.997l-3.45-6.047H206c4.418,0,8-3.582,8-8
		S210.418,371,206,371z"/>
</g>
<g id="MJJ&#x96EA;&#x82B1;_1_">
	<path fill="#C9E2FF" d="M340,374h-7.064l3.613-6.188c2.2-3.811,0.883-8.692-2.928-10.893l-0.243-0.123
		c-3.811-2.2-8.728-0.873-10.928,2.937l-3.45,5.981l-3.451-5.975c-2.2-3.81-7.117-5.127-10.929-2.927l-0.243,0.142
		c-3.81,2.2-5.128,7.047-2.928,10.857l3.613,6.188H298c-4.419,0-8,3.582-8,8s3.581,8,8,8h6.9l-3.45,6.047
		c-2.2,3.81-0.882,8.763,2.928,10.963l0.242,0.157c3.812,2.2,8.729,0.891,10.929-2.919l3.451-5.972l3.45,5.979
		c2.2,3.81,7.118,5.129,10.929,2.929l0.241-0.14c3.811-2.2,5.129-7.188,2.929-10.997l-3.45-6.047H340c4.418,0,8-3.582,8-8
		S344.418,374,340,374z"/>
</g>
<g id="MJJ&#x96EA;&#x82B1;_2_">
	<path fill="#C9E2FF" d="M271,430h-7.064l3.613-6.188c2.2-3.811,0.883-8.692-2.928-10.893l-0.243-0.123
		c-3.811-2.2-8.728-0.873-10.928,2.937L250,421.715l-3.451-5.975c-2.2-3.81-7.118-5.127-10.928-2.927l-0.243,0.142
		c-3.811,2.2-5.128,7.047-2.928,10.857l3.613,6.188H229c-4.418,0-8,3.582-8,8s3.582,8,8,8h6.9l-3.45,6.047
		c-2.2,3.81-0.882,8.763,2.928,10.963l0.242,0.157c3.811,2.2,8.728,0.891,10.928-2.919l3.451-5.972l3.451,5.979
		c2.2,3.81,7.118,5.129,10.929,2.929l0.241-0.14c3.811-2.2,5.129-7.188,2.929-10.997l-3.45-6.047H271c4.418,0,8-3.582,8-8
		S275.418,430,271,430z"/>
</g>
</svg>
