<?xml version="1.0" encoding="iso-8859-1"?>
<!-- Generator: Adobe Illustrator 16.0.0, SVG Export Plug-In . SVG Version: 6.00 Build 0)  -->
<!DOCTYPE svg PUBLIC "-//W3C//DTD SVG 1.1//EN" "http://www.w3.org/Graphics/SVG/1.1/DTD/svg11.dtd">
<svg version="1.1" id="&#x56FE;&#x5C42;_1" xmlns="http://www.w3.org/2000/svg" xmlns:xlink="http://www.w3.org/1999/xlink" x="0px"
	 y="0px" width="500px" height="500px" viewBox="0 0 500 500" style="enable-background:new 0 0 500 500;" xml:space="preserve">
<g id="cloud2">
	<g>
		<linearGradient id="SVGID_1_" gradientUnits="userSpaceOnUse" x1="305.1338" y1="329.7715" x2="305.1338" y2="117.5898">
			<stop  offset="0" stop-color="#C3DEFF"/>
			<stop  offset="0.9531" stop-color="#ECF5FF"/>
		</linearGradient>
		<path fill="url(#SVGID_1_)" d="M347.173,118.091C288.979,118.091,241.74,165,241.088,223H157v107h182.399
			c2.567,0,5.159,0.273,7.773,0.273c58.593,0,106.096-47.491,106.096-106.092C453.269,165.588,405.766,118.091,347.173,118.091z"/>
		<linearGradient id="SVGID_2_" gradientUnits="userSpaceOnUse" x1="272.0615" y1="264.5869" x2="272.0615" y2="32.4292">
			<stop  offset="0.2166" stop-color="#D0E5FF"/>
			<stop  offset="0.8809" stop-color="#F6FAFF"/>
		</linearGradient>
		<path fill="url(#SVGID_2_)" d="M388.141,149.055c0,64.112-51.971,116.081-116.077,116.081
			c-64.112,0-116.081-51.969-116.081-116.081c0-64.107,51.969-116.078,116.081-116.078
			C336.17,32.978,388.141,84.948,388.141,149.055z"/>
		<linearGradient id="SVGID_3_" gradientUnits="userSpaceOnUse" x1="155.4556" y1="329.749" x2="155.4556" y2="112.2998">
			<stop  offset="0" stop-color="#CBE2FF"/>
			<stop  offset="0.8845" stop-color="#FFFFFF"/>
		</linearGradient>
		<path fill="url(#SVGID_3_)" d="M264.18,221.537c0,60.05-48.676,108.726-108.723,108.726
			c-60.05,0-108.727-48.676-108.727-108.726c0-60.045,48.676-108.724,108.727-108.724
			C215.504,112.813,264.18,161.492,264.18,221.537z"/>
	</g>
</g>
<g id="MJJ&#x96EA;&#x82B1;">
	<path fill="#C9E2FF" d="M191.255,375h-7.666l3.92-6.671c2.388-4.135,0.958-9.411-3.177-11.799l-0.264-0.122
		c-4.135-2.388-9.47-0.941-11.858,3.191l-3.744,6.492l-3.744-6.48c-2.388-4.134-7.724-5.563-11.858-3.176l-0.264,0.154
		c-4.135,2.388-5.564,7.604-3.177,11.739l3.921,6.671h-7.664c-4.794,0-8.681,3.706-8.681,8.5s3.886,8.5,8.681,8.5h7.488
		l-3.744,6.785c-2.387,4.134-0.957,9.621,3.178,12.008l0.263,0.227c4.135,2.388,9.471,0.994,11.858-3.14l3.744-6.466l3.744,6.494
		c2.388,4.134,7.724,5.568,11.859,3.182l0.262-0.149c4.135-2.388,5.565-8.022,3.178-12.156L183.766,392h7.489
		c4.794,0,8.681-3.706,8.681-8.5S196.049,375,191.255,375z"/>
</g>
<g id="MJJ&#x96EA;&#x82B1;_1_">
	<path fill="#C9E2FF" d="M273.255,375h-7.666l3.921-6.671c2.388-4.135,0.958-9.411-3.177-11.799l-0.264-0.122
		c-4.135-2.388-9.471-0.941-11.857,3.191l-3.745,6.492l-3.744-6.48c-2.388-4.134-7.724-5.563-11.858-3.176l-0.264,0.154
		c-4.135,2.388-5.564,7.604-3.177,11.739l3.921,6.671h-7.664c-4.794,0-8.681,3.706-8.681,8.5s3.886,8.5,8.681,8.5h7.488
		l-3.744,6.785c-2.387,4.134-0.957,9.621,3.178,12.008l0.263,0.227c4.135,2.388,9.471,0.994,11.858-3.14l3.744-6.466l3.745,6.494
		c2.387,4.134,7.724,5.568,11.858,3.182l0.262-0.149c4.135-2.388,5.565-8.022,3.178-12.156L265.767,392h7.488
		c4.794,0,8.681-3.706,8.681-8.5S278.049,375,273.255,375z"/>
</g>
<g id="MJJ&#x96EA;&#x82B1;_2_">
	<path fill="#C9E2FF" d="M355.255,375h-7.666l3.921-6.671c2.388-4.135,0.958-9.411-3.177-11.799l-0.264-0.122
		c-4.135-2.388-9.471-0.941-11.857,3.191l-3.745,6.492l-3.744-6.48c-2.387-4.134-7.723-5.563-11.858-3.176l-0.264,0.154
		c-4.135,2.388-5.564,7.604-3.177,11.739l3.92,6.671h-7.663c-4.795,0-8.681,3.706-8.681,8.5s3.886,8.5,8.681,8.5h7.487l-3.743,6.785
		c-2.388,4.134-0.958,9.621,3.177,12.008l0.263,0.227c4.136,2.388,9.472,0.994,11.858-3.14l3.744-6.466l3.745,6.494
		c2.387,4.134,7.724,5.568,11.858,3.182l0.262-0.149c4.135-2.388,5.565-8.022,3.178-12.156L347.767,392h7.488
		c4.794,0,8.681-3.706,8.681-8.5S360.049,375,355.255,375z"/>
</g>
<g id="MJJ&#x96EA;&#x82B1;_3_">
	<path fill="#C9E2FF" d="M224.775,439h-6.043l3.091-5.319c1.882-3.26,0.755-7.449-2.505-9.331l-0.208-0.111
		c-3.26-1.883-7.466-0.751-9.349,2.509l-2.952,5.115l-2.952-5.111c-1.882-3.26-6.089-4.388-9.349-2.505l-0.208,0.12
		c-3.26,1.883-4.387,6.055-2.505,9.314l3.091,5.319h-6.042c-3.78,0-6.844,3.221-6.844,7s3.064,7,6.844,7h5.903l-2.952,4.992
		c-1.882,3.259-0.755,7.405,2.505,9.287l0.207,0.09c3.26,1.883,7.467,0.738,9.349-2.521l2.952-5.12l2.952,5.109
		c1.882,3.259,6.09,4.385,9.35,2.503l0.206-0.121c3.26-1.883,4.388-5.968,2.506-9.227L218.872,453h5.904c3.78,0,6.844-3.221,6.844-7
		S228.555,439,224.775,439z"/>
</g>
<g id="MJJ&#x96EA;&#x82B1;_4_">
	<path fill="#C9E2FF" d="M312.776,439h-6.044l3.091-5.319c1.883-3.26,0.756-7.449-2.504-9.331l-0.208-0.111
		c-3.261-1.883-7.467-0.751-9.35,2.509l-2.951,5.115l-2.952-5.111c-1.883-3.26-6.09-4.388-9.35-2.505l-0.208,0.12
		c-3.26,1.883-4.388,6.055-2.505,9.314l3.091,5.319h-6.042c-3.779,0-6.844,3.221-6.844,7s3.064,7,6.844,7h5.903l-2.951,4.992
		c-1.883,3.259-0.755,7.405,2.505,9.287l0.207,0.09c3.26,1.883,7.467,0.738,9.35-2.521l2.952-5.12l2.951,5.109
		c1.883,3.259,6.09,4.385,9.35,2.503l0.207-0.121c3.26-1.883,4.388-5.968,2.505-9.227L306.872,453h5.904
		c3.779,0,6.844-3.221,6.844-7S316.556,439,312.776,439z"/>
</g>
</svg>
