<?xml version="1.0" encoding="iso-8859-1"?>
<!-- Generator: Adobe Illustrator 16.0.0, SVG Export Plug-In . SVG Version: 6.00 Build 0)  -->
<!DOCTYPE svg PUBLIC "-//W3C//DTD SVG 1.1//EN" "http://www.w3.org/Graphics/SVG/1.1/DTD/svg11.dtd">
<svg version="1.1" id="&#x56FE;&#x5C42;_1" xmlns="http://www.w3.org/2000/svg" xmlns:xlink="http://www.w3.org/1999/xlink" x="0px"
	 y="0px" width="500px" height="500px" viewBox="0 0 500 500" style="enable-background:new 0 0 500 500;" xml:space="preserve">
<g id="&#x592A;&#x9633;">
	<linearGradient id="SVGID_1_" gradientUnits="userSpaceOnUse" x1="249.9995" y1="42" x2="249.9995" y2="364.0005">
		<stop  offset="0" stop-color="#FFDC80"/>
		<stop  offset="1" stop-color="#FF9000"/>
	</linearGradient>
	<path fill="url(#SVGID_1_)" d="M355.092,203.234c0,57.901-46.945,104.851-104.854,104.851
		c-57.91,0-104.855-46.95-104.855-104.851c0-57.912,46.945-104.861,104.855-104.861C308.146,98.373,355.092,145.322,355.092,203.234
		z M128,202.268c0-5.119-4.15-9.268-9.269-9.268H98.269C93.15,193,89,197.149,89,202.268v0.464c0,5.119,4.15,9.268,9.269,9.268
		h20.462c5.119,0,9.269-4.149,9.269-9.268V202.268z M163.55,288.835c-3.62-3.619-9.488-3.619-13.107,0l-14.762,14.762
		c-3.619,3.619-3.619,9.487,0,13.107l0.574,0.574c3.62,3.619,9.488,3.618,13.107-0.001l14.762-14.761c3.62-3.62,3.62-9.488,0-13.108
		L163.55,288.835z M259,334.27c0-5.119-4.149-9.27-9.269-9.27h-0.463c-5.119,0-9.269,4.15-9.269,9.27v20.461
		c0,5.119,4.15,9.27,9.269,9.27h0.463c5.119,0,9.269-4.15,9.269-9.27V334.27z M349.515,289.342c-3.62-3.62-9.489-3.62-13.108,0
		l-0.573,0.573c-3.62,3.619-3.62,9.488,0,13.108l14.761,14.761c3.62,3.619,9.489,3.62,13.109,0l0.572-0.572
		c3.62-3.62,3.619-9.489,0-13.108L349.515,289.342z M381.328,194c-5.12,0-9.328,4.07-9.328,9.189V204c0,5.119,4.208,9,9.328,9
		h20.875c5.118,0,8.797-3.881,8.797-9.001v-0.81c0-5.12-3.679-9.189-8.797-9.189H381.328z M336.346,103.946
		c-3.62,3.62-3.62,9.499-0.001,13.119l0.573,0.573c3.62,3.62,9.488,3.609,13.108-0.011l14.761-14.761
		c3.62-3.62,3.62-9.479-0.001-13.099l-0.571-0.572c-3.62-3.62-9.489-3.63-13.108-0.01L336.346,103.946z M241,72.138
		c0,5.12,4.078,8.862,9.197,8.862h0.811c5.12,0,8.992-3.743,8.992-8.863V51.262c0-5.118-3.873-9.262-8.994-9.262h-0.808
		c-5.12,0-9.198,4.144-9.198,9.263V72.138z M150.95,117.126c3.619,3.62,9.499,3.61,13.119-0.01l0.573-0.573
		c3.62-3.62,3.609-9.479-0.011-13.099l-14.761-14.761c-3.62-3.62-9.478-3.63-13.098-0.009l-0.572,0.572
		c-3.62,3.62-3.631,9.499-0.011,13.119L150.95,117.126z"/>
</g>
<g id="&#x96FE;">
	<linearGradient id="SVGID_2_" gradientUnits="userSpaceOnUse" x1="251.5" y1="461" x2="251.5" y2="247.0005">
		<stop  offset="0" stop-color="#C3DEFF"/>
		<stop  offset="1" stop-color="#E4F0FF"/>
	</linearGradient>
	<path fill="url(#SVGID_2_)" d="M439,259.795c0,6.74-5.464,12.205-12.204,12.205H76.204C69.464,272,64,266.535,64,259.795
		v-0.59C64,252.465,69.464,247,76.204,247h350.592c6.74,0,12.204,5.465,12.204,12.205V259.795z M458,306.5
		c0-6.903-5.597-12.5-12.5-12.5h-388c-6.903,0-12.5,5.597-12.5,12.5l0,0c0,6.903,5.597,12.5,12.5,12.5h388
		C452.403,319,458,313.403,458,306.5L458,306.5z M458,353.5c0-6.903-5.597-12.5-12.5-12.5h-388c-6.903,0-12.5,5.597-12.5,12.5l0,0
		c0,6.903,5.597,12.5,12.5,12.5h388C452.403,366,458,360.403,458,353.5L458,353.5z M422,400.5c0-6.903-5.597-12.5-12.5-12.5h-321
		c-6.903,0-12.5,5.597-12.5,12.5l0,0c0,6.903,5.597,12.5,12.5,12.5h321C416.403,413,422,407.403,422,400.5L422,400.5z M356,447.811
		c0-6.522-5.288-11.811-11.811-11.811H147.811c-6.523,0-11.811,5.288-11.811,11.811v1.379c0,6.522,5.288,11.811,11.811,11.811
		h196.379c6.522,0,11.811-5.288,11.811-11.811V447.811z"/>
</g>
</svg>
