<?xml version="1.0" encoding="iso-8859-1"?>
<!-- Generator: Adobe Illustrator 16.0.0, SVG Export Plug-In . SVG Version: 6.00 Build 0)  -->
<!DOCTYPE svg PUBLIC "-//W3C//DTD SVG 1.1//EN" "http://www.w3.org/Graphics/SVG/1.1/DTD/svg11.dtd">
<svg version="1.1" id="&#x56FE;&#x5C42;_1" xmlns="http://www.w3.org/2000/svg" xmlns:xlink="http://www.w3.org/1999/xlink" x="0px"
	 y="0px" width="500px" height="500px" viewBox="0 0 500 500" style="enable-background:new 0 0 500 500;" xml:space="preserve">
<g id="cloud2">
	<g>
		<linearGradient id="SVGID_1_" gradientUnits="userSpaceOnUse" x1="312.6563" y1="419.8428" x2="312.6563" y2="175.8965">
			<stop  offset="0" stop-color="#C3DEFF"/>
			<stop  offset="0.9531" stop-color="#ECF5FF"/>
		</linearGradient>
		<path fill="url(#SVGID_1_)" d="M361.328,176.473C294.419,176.473,240.106,230,239.356,297H142v123h210.392
			c2.952,0,5.932,0.42,8.937,0.42c67.368,0,121.985-54.599,121.985-121.975C483.313,231.076,428.696,176.473,361.328,176.473z"/>
		<linearGradient id="SVGID_2_" gradientUnits="userSpaceOnUse" x1="274.9688" y1="345.001" x2="274.9688" y2="78.0752">
			<stop  offset="0.2166" stop-color="#D0E5FF"/>
			<stop  offset="0.8809" stop-color="#F6FAFF"/>
		</linearGradient>
		<path fill="url(#SVGID_2_)" d="M408.433,212.167c0,73.713-59.755,133.465-133.462,133.465
			c-73.713,0-133.464-59.752-133.464-133.465c0-73.708,59.751-133.461,133.464-133.461
			C348.678,78.706,408.433,138.459,408.433,212.167z"/>
		<linearGradient id="SVGID_3_" gradientUnits="userSpaceOnUse" x1="140.8999" y1="419.9209" x2="140.8999" y2="169.9072">
			<stop  offset="0" stop-color="#CBE2FF"/>
			<stop  offset="0.8845" stop-color="#FFFFFF"/>
		</linearGradient>
		<path fill="url(#SVGID_3_)" d="M265.907,295.504c0,69.043-55.966,125.008-125.005,125.008
			c-69.043,0-125.009-55.965-125.009-125.008c0-69.038,55.966-125.006,125.009-125.006
			C209.941,170.498,265.907,226.466,265.907,295.504z"/>
	</g>
</g>
</svg>
