<?xml version="1.0" encoding="iso-8859-1"?>
<!-- Generator: Adobe Illustrator 16.0.0, SVG Export Plug-In . SVG Version: 6.00 Build 0)  -->
<!DOCTYPE svg PUBLIC "-//W3C//DTD SVG 1.1//EN" "http://www.w3.org/Graphics/SVG/1.1/DTD/svg11.dtd">
<svg version="1.1" id="&#x56FE;&#x5C42;_1" xmlns="http://www.w3.org/2000/svg" xmlns:xlink="http://www.w3.org/1999/xlink" x="0px"
	 y="0px" width="500px" height="500px" viewBox="0 0 500 500" style="enable-background:new 0 0 500 500;" xml:space="preserve">
<g id="&#x592A;&#x9633;">
	<linearGradient id="SVGID_1_" gradientUnits="userSpaceOnUse" x1="298" y1="22" x2="298" y2="326.0005">
		<stop  offset="0" stop-color="#FFDC80"/>
		<stop  offset="1" stop-color="#FF9000"/>
	</linearGradient>
	<path fill="url(#SVGID_1_)" d="M397.472,174.379c0,54.718-44.364,99.086-99.09,99.086s-99.09-44.368-99.09-99.086
		c0-54.728,44.364-99.095,99.09-99.095S397.472,119.651,397.472,174.379z M183,173.759c0-4.837-3.921-8.759-8.759-8.759h-19.482
		c-4.837,0-8.759,3.921-8.759,8.759v0.482c0,4.837,3.921,8.759,8.759,8.759h19.482c4.837,0,8.759-3.921,8.759-8.759V173.759z
		 M216.461,255.273c-3.42-3.42-8.966-3.42-12.387,0.001l-13.95,13.949c-3.42,3.42-3.42,8.966,0,12.387l0.542,0.543
		c3.42,3.42,8.966,3.42,12.387-0.001l13.95-13.949c3.42-3.421,3.42-8.967,0-12.388L216.461,255.273z M307,297.76
		c0-4.838-3.922-8.76-8.76-8.76h-0.48c-4.838,0-8.76,3.922-8.76,8.76v19.48c0,4.838,3.922,8.76,8.76,8.76h0.48
		c4.838,0,8.76-3.922,8.76-8.76V297.76z M392.201,255.753c-3.421-3.421-8.967-3.421-12.388,0l-0.542,0.542
		c-3.421,3.42-3.421,8.966,0,12.387l13.95,13.949c3.42,3.421,8.967,3.422,12.388,0l0.541-0.541c3.421-3.421,3.42-8.967,0-12.388
		L392.201,255.753z M450,174.766c0-4.841-3.925-8.766-8.767-8.766h-19.467c-4.842,0-8.767,3.925-8.767,8.766v0.468
		c0,4.841,3.925,8.766,8.767,8.766h19.467c4.842,0,8.767-3.925,8.767-8.766V174.766z M379.756,80.551
		c-3.421,3.421-3.421,8.977,0,12.397l0.541,0.542c3.421,3.421,8.967,3.411,12.388-0.01l13.95-13.949
		c3.42-3.42,3.42-8.957-0.002-12.378l-0.54-0.541c-3.421-3.421-8.967-3.43-12.388-0.01L379.756,80.551z M308,30.76
		c0-4.838-3.928-8.76-8.773-8.76h-0.453c-4.846,0-8.773,3.922-8.773,8.76v19.48c0,4.838,3.928,8.76,8.773,8.76h0.453
		c4.846,0,8.773-3.922,8.773-8.76V30.76z M204.554,93.006c3.42,3.42,8.977,3.411,12.397-0.01l0.542-0.542
		c3.421-3.421,3.41-8.957-0.011-12.378l-13.949-13.949c-3.42-3.42-8.957-3.43-12.378-0.009l-0.54,0.541
		c-3.421,3.421-3.431,8.977-0.011,12.397L204.554,93.006z"/>
</g>
<g id="cloud2">
	<g>
		<linearGradient id="SVGID_2_" gradientUnits="userSpaceOnUse" x1="278.7646" y1="378.5879" x2="278.7646" y2="178.5693">
			<stop  offset="0" stop-color="#C3DEFF"/>
			<stop  offset="0.9531" stop-color="#ECF5FF"/>
		</linearGradient>
		<path fill="url(#SVGID_2_)" d="M318.561,179.042c-54.834,0-99.344,43.958-99.958,98.958H139v101h172.236
			c2.42,0,4.861,0.061,7.324,0.061c55.209,0,99.969-44.795,99.969-100.01C418.529,223.84,373.77,179.042,318.561,179.042z"/>
		<linearGradient id="SVGID_3_" gradientUnits="userSpaceOnUse" x1="247.7881" y1="316.9678" x2="247.7881" y2="98.2183">
			<stop  offset="0.2166" stop-color="#D0E5FF"/>
			<stop  offset="0.8809" stop-color="#F6FAFF"/>
		</linearGradient>
		<path fill="url(#SVGID_3_)" d="M357.163,208.109c0,60.41-48.97,109.376-109.374,109.376
			c-60.409,0-109.376-48.967-109.376-109.376c0-60.404,48.967-109.374,109.376-109.374
			C308.193,98.735,357.163,147.705,357.163,208.109z"/>
		<linearGradient id="SVGID_4_" gradientUnits="userSpaceOnUse" x1="137.9155" y1="378.3672" x2="137.9155" y2="173.4761">
			<stop  offset="0" stop-color="#CBE2FF"/>
			<stop  offset="0.8845" stop-color="#FFFFFF"/>
		</linearGradient>
		<path fill="url(#SVGID_4_)" d="M240.361,276.405c0,56.582-45.865,102.446-102.444,102.446
			c-56.582,0-102.447-45.864-102.447-102.446c0-56.578,45.865-102.445,102.447-102.445
			C194.496,173.96,240.361,219.828,240.361,276.405z"/>
	</g>
</g>
<g id="&#x6D6E;&#x5C18;">
	<linearGradient id="SVGID_5_" gradientUnits="userSpaceOnUse" x1="227.5005" y1="478" x2="227.5005" y2="385.3164">
		<stop  offset="0" stop-color="#FF9B00"/>
		<stop  offset="1" stop-color="#FFD879"/>
	</linearGradient>
	<path fill="url(#SVGID_5_)" d="M341,465.744c0,6.769-5.487,12.256-12.256,12.256H126.256
		c-6.769,0-12.256-5.487-12.256-12.256v-0.488c0-6.769,5.487-12.256,12.256-12.256h202.488c6.769,0,12.256,5.487,12.256,12.256
		V465.744z M138.513,385.316c-10.152,0-18.383,8.231-18.383,18.384s8.231,18.383,18.383,18.383s18.383-8.23,18.383-18.383
		S148.665,385.316,138.513,385.316z M196.727,397.572c-10.152,0-18.383,8.231-18.383,18.383c0,10.152,8.231,18.384,18.383,18.384
		c10.152,0,18.384-8.231,18.384-18.384C215.11,405.804,206.879,397.572,196.727,397.572z M258.005,385.316
		c-10.152,0-18.384,8.231-18.384,18.384s8.231,18.383,18.384,18.383s18.383-8.23,18.383-18.383S268.157,385.316,258.005,385.316z
		 M316.219,397.572c-10.152,0-18.384,8.231-18.384,18.383c0,10.152,8.231,18.384,18.384,18.384s18.384-8.231,18.384-18.384
		C334.603,405.804,326.371,397.572,316.219,397.572z"/>
</g>
</svg>
