<?xml version="1.0" encoding="iso-8859-1"?>
<!-- Generator: Adobe Illustrator 16.0.0, SVG Export Plug-In . SVG Version: 6.00 Build 0)  -->
<!DOCTYPE svg PUBLIC "-//W3C//DTD SVG 1.1//EN" "http://www.w3.org/Graphics/SVG/1.1/DTD/svg11.dtd">
<svg version="1.1" id="&#x56FE;&#x5C42;_1" xmlns="http://www.w3.org/2000/svg" xmlns:xlink="http://www.w3.org/1999/xlink" x="0px"
	 y="0px" width="500px" height="500px" viewBox="0 0 500 500" style="enable-background:new 0 0 500 500;" xml:space="preserve">
<g id="&#x592A;&#x9633;">
	<linearGradient id="SVGID_1_" gradientUnits="userSpaceOnUse" x1="300" y1="32" x2="300" y2="334.0005">
		<stop  offset="0" stop-color="#FFDC80"/>
		<stop  offset="1" stop-color="#FF9000"/>
	</linearGradient>
	<path fill="url(#SVGID_1_)" d="M398.134,182.963c0,54.209-43.952,98.164-98.168,98.164
		c-54.216,0-98.168-43.955-98.168-98.164c0-54.218,43.952-98.173,98.168-98.173C354.182,84.79,398.134,128.745,398.134,182.963z
		 M186,182.677c0-4.792-3.885-8.677-8.677-8.677h-19.646c-4.792,0-8.677,3.885-8.677,8.677v0.646c0,4.792,3.885,8.677,8.677,8.677
		h19.646c4.792,0,8.677-3.885,8.677-8.677V182.677z M218.808,263.104c-3.389-3.389-8.883-3.389-12.271,0.001l-13.82,13.819
		c-3.389,3.389-3.389,8.883,0,12.272l0.537,0.537c3.389,3.389,8.883,3.388,12.271-0.001l13.82-13.819
		c3.389-3.389,3.389-8.884,0-12.272L218.808,263.104z M309,305.678c0-4.793-3.885-8.678-8.678-8.678h-0.645
		c-4.793,0-8.678,3.885-8.678,8.678v19.645c0,4.793,3.885,8.678,8.678,8.678h0.645c4.793,0,8.678-3.885,8.678-8.678V305.678z
		 M392.912,263.58c-3.39-3.39-8.884-3.39-12.272,0l-0.536,0.536c-3.39,3.389-3.39,8.883,0,12.272l13.819,13.819
		c3.389,3.389,8.884,3.39,12.272,0l0.536-0.536c3.39-3.389,3.389-8.884,0-12.272L392.912,263.58z M422.697,174
		c-4.794,0-8.697,4.128-8.697,8.921v0.758c0,4.793,3.903,8.32,8.697,8.32h19.544c4.792,0,8.759-3.527,8.759-8.321v-0.758
		c0-4.793-3.967-8.921-8.759-8.921H422.697z M380.583,90.007c-3.39,3.389-3.39,8.893-0.001,12.282l0.537,0.537
		c3.389,3.389,8.883,3.379,12.272-0.01l13.819-13.819c3.389-3.389,3.389-8.874-0.001-12.263l-0.535-0.536
		c-3.39-3.389-8.884-3.398-12.272-0.01L380.583,90.007z M291,60.228c0,4.793,4.137,8.772,8.929,8.772h0.759
		c4.793,0,8.313-3.979,8.313-8.773V40.683c0-4.792-3.52-8.683-8.313-8.683h-0.757c-4.793,0-8.93,3.891-8.93,8.684V60.228z
		 M207.01,102.347c3.389,3.389,8.894,3.379,12.282-0.009l0.537-0.537c3.389-3.389,3.378-8.874-0.011-12.263l-13.819-13.82
		c-3.389-3.388-8.873-3.398-12.263-0.008l-0.535,0.535c-3.389,3.389-3.399,8.894-0.01,12.282L207.01,102.347z"/>
</g>
<g id="cloud2">
	<g>
		<linearGradient id="SVGID_2_" gradientUnits="userSpaceOnUse" x1="277.0908" y1="374.7246" x2="277.0908" y2="182.4424">
			<stop  offset="0" stop-color="#C3DEFF"/>
			<stop  offset="0.9531" stop-color="#ECF5FF"/>
		</linearGradient>
		<path fill="url(#SVGID_2_)" d="M315.049,182.896c-52.73,0-95.534,42.104-96.124,95.104H143v97h165.006
			c2.326,0,4.674,0.179,7.043,0.179c53.091,0,96.134-43.044,96.134-96.143C411.183,225.944,368.14,182.896,315.049,182.896z"/>
		<linearGradient id="SVGID_3_" gradientUnits="userSpaceOnUse" x1="246.9907" y1="315.5908" x2="246.9907" y2="105.231">
			<stop  offset="0.2166" stop-color="#D0E5FF"/>
			<stop  offset="0.8809" stop-color="#F6FAFF"/>
		</linearGradient>
		<path fill="url(#SVGID_3_)" d="M352.17,210.906c0,58.092-47.091,105.182-105.178,105.182
			c-58.092,0-105.181-47.09-105.181-105.182c0-58.087,47.089-105.179,105.181-105.179
			C305.079,105.728,352.17,152.819,352.17,210.906z"/>
		<linearGradient id="SVGID_4_" gradientUnits="userSpaceOnUse" x1="141.3325" y1="374.6338" x2="141.3325" y2="177.6016">
			<stop  offset="0" stop-color="#CBE2FF"/>
			<stop  offset="0.8845" stop-color="#FFFFFF"/>
		</linearGradient>
		<path fill="url(#SVGID_4_)" d="M239.848,276.582c0,54.412-44.105,98.518-98.514,98.518
			c-54.412,0-98.518-44.105-98.518-98.518c0-54.407,44.106-98.515,98.518-98.515C195.743,178.067,239.848,222.175,239.848,276.582z"
			/>
	</g>
</g>
<g id="&#x7EC8;&#x96E8;&#x70B9;">
	<path fill="#47B2FF" d="M121.729,463.341c-3.397,5.885-10.923,7.9-16.808,4.506l0,0c-5.883-3.4-7.9-10.925-4.502-16.81
		l23.069-39.956c3.397-5.885,10.923-7.9,16.807-4.503l0,0c5.884,3.397,7.901,10.922,4.504,16.807L121.729,463.341z"/>
</g>
<g id="&#x7EC8;&#x96E8;&#x70B9;_1_">
	<path fill="#47B2FF" d="M181.395,463.341c-3.397,5.885-10.923,7.9-16.808,4.506l0,0c-5.883-3.4-7.9-10.925-4.502-16.81
		l23.069-39.956c3.397-5.885,10.923-7.9,16.807-4.503l0,0c5.884,3.397,7.901,10.922,4.504,16.807L181.395,463.341z"/>
</g>
<g id="&#x7EC8;&#x96E8;&#x70B9;_2_">
	<path fill="#47B2FF" d="M241.062,463.341c-3.397,5.885-10.923,7.9-16.808,4.506l0,0c-5.883-3.4-7.9-10.925-4.502-16.81
		l23.069-39.956c3.397-5.885,10.924-7.9,16.807-4.503l0,0c5.885,3.397,7.901,10.922,4.504,16.807L241.062,463.341z"/>
</g>
<g id="&#x7EC8;&#x96E8;&#x70B9;_3_">
	<path fill="#47B2FF" d="M300.729,463.341c-3.397,5.885-10.923,7.9-16.808,4.506l0,0c-5.883-3.4-7.9-10.925-4.503-16.81
		l23.069-39.956c3.397-5.885,10.924-7.9,16.807-4.503l0,0c5.885,3.397,7.901,10.922,4.504,16.807L300.729,463.341z"/>
</g>
</svg>
