<?xml version="1.0" encoding="iso-8859-1"?>
<!-- Generator: Adobe Illustrator 16.0.0, SVG Export Plug-In . SVG Version: 6.00 Build 0)  -->
<!DOCTYPE svg PUBLIC "-//W3C//DTD SVG 1.1//EN" "http://www.w3.org/Graphics/SVG/1.1/DTD/svg11.dtd">
<svg version="1.1" id="&#x56FE;&#x5C42;_1" xmlns="http://www.w3.org/2000/svg" xmlns:xlink="http://www.w3.org/1999/xlink" x="0px"
	 y="0px" width="500px" height="500px" viewBox="0 0 500 500" style="enable-background:new 0 0 500 500;" xml:space="preserve">
<g id="&#x6708;&#x4EAE;">
	<linearGradient id="SVGID_1_" gradientUnits="userSpaceOnUse" x1="243.9995" y1="70.0874" x2="243.9995" y2="438.9966">
		<stop  offset="0" stop-color="#FFDC80"/>
		<stop  offset="0.1412" stop-color="#FFD677"/>
		<stop  offset="0.3759" stop-color="#FFC75D"/>
		<stop  offset="0.6753" stop-color="#FFAE34"/>
		<stop  offset="0.9944" stop-color="#FF8F00"/>
	</linearGradient>
	<path fill="url(#SVGID_1_)" d="M267.056,175.566c0-32.603,9.803-62.904,26.596-88.16c0.351-0.526,0.705-1.052,1.071-1.608
		c5.195-6.169,5.195-9.35-2.959-12.005c-0.662-0.179-1.34-0.354-1.974-0.495c-11.139-2.105-22.638-3.211-34.395-3.211
		c-101.873,0-184.455,82.583-184.455,184.455c0,101.871,82.582,184.454,184.455,184.454c68.897,0,128.961-37.781,160.633-93.749
		c0.157-0.279,0.339-0.634,0.519-0.997c1.041-3.842,1.041-10.201-5.345-9.907c-0.367-0.04-0.721-0.079-1.082-0.121
		C329.755,325.971,267.056,258.11,267.056,175.566z"/>
</g>
</svg>
