<?xml version="1.0" encoding="iso-8859-1"?>
<!-- Generator: Adobe Illustrator 16.0.0, SVG Export Plug-In . SVG Version: 6.00 Build 0)  -->
<!DOCTYPE svg PUBLIC "-//W3C//DTD SVG 1.1//EN" "http://www.w3.org/Graphics/SVG/1.1/DTD/svg11.dtd">
<svg version="1.1" id="&#x56FE;&#x5C42;_1" xmlns="http://www.w3.org/2000/svg" xmlns:xlink="http://www.w3.org/1999/xlink" x="0px"
	 y="0px" width="500px" height="500px" viewBox="0 0 500 500" style="enable-background:new 0 0 500 500;" xml:space="preserve">
<g id="&#x6708;&#x4EAE;">
	<linearGradient id="SVGID_1_" gradientUnits="userSpaceOnUse" x1="234.3813" y1="66.9937" x2="234.3813" y2="320.2808">
		<stop  offset="0" stop-color="#FFDC80"/>
		<stop  offset="0.1412" stop-color="#FFD677"/>
		<stop  offset="0.3759" stop-color="#FFC75D"/>
		<stop  offset="0.6753" stop-color="#FFAE34"/>
		<stop  offset="0.9944" stop-color="#FF8F00"/>
	</linearGradient>
	<path fill="url(#SVGID_1_)" d="M250.211,139.414c0-22.385,6.73-43.189,18.26-60.529c0.241-0.361,0.483-0.723,0.735-1.104
		c3.566-4.236,3.566-6.419-2.031-8.242c-0.455-0.123-0.92-0.243-1.355-0.339c-7.647-1.446-15.542-2.205-23.615-2.205
		c-69.944,0-126.644,56.7-126.644,126.643c0,69.942,56.7,126.644,126.644,126.644c47.304,0,88.542-25.94,110.288-64.367
		c0.108-0.191,0.232-0.435,0.356-0.685c0.714-2.638,0.714-7.004-3.67-6.802c-0.252-0.028-0.494-0.055-0.742-0.083
		C293.26,242.678,250.211,196.086,250.211,139.414z"/>
</g>
<g id="&#x96FE;">
	<linearGradient id="SVGID_2_" gradientUnits="userSpaceOnUse" x1="255" y1="438" x2="255" y2="226.0005">
		<stop  offset="0" stop-color="#C3DEFF"/>
		<stop  offset="1" stop-color="#E4F0FF"/>
	</linearGradient>
	<path fill="url(#SVGID_2_)" d="M439,238.943c0,6.659-5.398,12.057-12.057,12.057H81.057C74.398,251,69,245.602,69,238.943
		v-0.887C69,231.398,74.398,226,81.057,226h345.887c6.658,0,12.057,5.398,12.057,12.057V238.943z M459,285.445
		c0-6.873-5.572-12.445-12.446-12.445H63.446C56.572,273,51,278.572,51,285.445v0.109C51,292.428,56.572,298,63.446,298h383.107
		c6.874,0,12.446-5.572,12.446-12.445V285.445z M459,331.445c0-6.873-5.572-12.445-12.446-12.445H63.446
		C56.572,319,51,324.572,51,331.445v0.109C51,338.428,56.572,344,63.446,344h383.107c6.874,0,12.446-5.572,12.446-12.445V331.445z
		 M424,378.445c0-6.873-5.572-12.445-12.445-12.445H94.445C87.572,366,82,371.572,82,378.445v0.109
		C82,385.428,87.572,391,94.445,391h317.109c6.873,0,12.445-5.572,12.445-12.445V378.445z M359,424.668
		c0-6.444-5.224-11.668-11.667-11.668H152.667c-6.443,0-11.667,5.224-11.667,11.668v1.664c0,6.444,5.224,11.668,11.667,11.668
		h194.666c6.443,0,11.667-5.224,11.667-11.668V424.668z"/>
</g>
</svg>
