<?xml version="1.0" encoding="iso-8859-1"?>
<!-- Generator: Adobe Illustrator 16.0.0, SVG Export Plug-In . SVG Version: 6.00 Build 0)  -->
<!DOCTYPE svg PUBLIC "-//W3C//DTD SVG 1.1//EN" "http://www.w3.org/Graphics/SVG/1.1/DTD/svg11.dtd">
<svg version="1.1" id="&#x56FE;&#x5C42;_1" xmlns="http://www.w3.org/2000/svg" xmlns:xlink="http://www.w3.org/1999/xlink" x="0px"
	 y="0px" width="500px" height="500px" viewBox="0 0 500 500" style="enable-background:new 0 0 500 500;" xml:space="preserve">
<g id="&#x6708;&#x4EAE;">
	<linearGradient id="SVGID_1_" gradientUnits="userSpaceOnUse" x1="326.3818" y1="13.9937" x2="326.3818" y2="267.2808">
		<stop  offset="0" stop-color="#FFDC80"/>
		<stop  offset="0.1412" stop-color="#FFD677"/>
		<stop  offset="0.3759" stop-color="#FFC75D"/>
		<stop  offset="0.6753" stop-color="#FFAE34"/>
		<stop  offset="0.9944" stop-color="#FF8F00"/>
	</linearGradient>
	<path fill="url(#SVGID_1_)" d="M342.212,86.414c0-22.385,6.729-43.189,18.26-60.529c0.241-0.361,0.483-0.723,0.735-1.104
		c3.566-4.236,3.566-6.419-2.031-8.242c-0.455-0.123-0.92-0.243-1.355-0.339c-7.647-1.446-15.542-2.205-23.615-2.205
		c-69.943,0-126.643,56.7-126.643,126.643c0,69.943,56.7,126.644,126.643,126.644c47.305,0,88.543-25.94,110.288-64.367
		c0.108-0.192,0.232-0.436,0.356-0.685c0.714-2.638,0.714-7.004-3.67-6.802c-0.252-0.028-0.494-0.055-0.742-0.083
		C385.26,189.678,342.212,143.086,342.212,86.414z"/>
</g>
<g id="cloud2">
	<g>
		<linearGradient id="SVGID_2_" gradientUnits="userSpaceOnUse" x1="270.9082" y1="357.7949" x2="270.9082" y2="157.5527">
			<stop  offset="0" stop-color="#C3DEFF"/>
			<stop  offset="0.9531" stop-color="#ECF5FF"/>
		</linearGradient>
		<path fill="url(#SVGID_2_)" d="M310.698,158.026c-54.916,0-99.493,44.21-100.108,98.974H131v101h172.363
			c2.423,0.176,4.868,0.269,7.335,0.269c55.292,0,100.119-44.823,100.119-100.122C410.817,202.854,365.99,158.026,310.698,158.026z"
			/>
		<linearGradient id="SVGID_3_" gradientUnits="userSpaceOnUse" x1="239.8188" y1="296.293" x2="239.8188" y2="77.2144">
			<stop  offset="0.2166" stop-color="#D0E5FF"/>
			<stop  offset="0.8809" stop-color="#F6FAFF"/>
		</linearGradient>
		<path fill="url(#SVGID_3_)" d="M349.358,187.27c0,60.5-49.043,109.541-109.538,109.541
			c-60.5,0-109.541-49.041-109.541-109.541c0-60.495,49.041-109.538,109.541-109.538C300.315,77.731,349.358,126.774,349.358,187.27
			z"/>
		<linearGradient id="SVGID_4_" gradientUnits="userSpaceOnUse" x1="129.7817" y1="357.7832" x2="129.7817" y2="152.5845">
			<stop  offset="0" stop-color="#CBE2FF"/>
			<stop  offset="0.8845" stop-color="#FFFFFF"/>
		</linearGradient>
		<path fill="url(#SVGID_4_)" d="M232.381,255.668c0,56.667-45.934,102.601-102.598,102.601
			c-56.667,0-102.601-45.934-102.601-102.601c0-56.662,45.934-102.599,102.601-102.599
			C186.447,153.069,232.381,199.006,232.381,255.668z"/>
	</g>
</g>
<g id="&#x7EC8;&#x96E8;&#x70B9;">
	<path fill="#47B2FF" d="M115.55,448.129c-3.515,6.088-11.301,8.173-17.39,4.661l0,0c-6.086-3.518-8.173-11.303-4.659-17.391
		l23.868-41.341c3.515-6.088,11.301-8.173,17.388-4.658l0,0c6.088,3.515,8.175,11.3,4.66,17.388L115.55,448.129z"/>
</g>
<g id="&#x7EC8;&#x96E8;&#x70B9;_1_">
	<path fill="#47B2FF" d="M173.55,448.129c-3.515,6.088-11.301,8.173-17.39,4.661l0,0c-6.086-3.518-8.173-11.303-4.659-17.391
		l23.868-41.341c3.515-6.088,11.301-8.173,17.388-4.658l0,0c6.088,3.515,8.175,11.3,4.66,17.388L173.55,448.129z"/>
</g>
<g id="&#x7EC8;&#x96E8;&#x70B9;_2_">
	<path fill="#47B2FF" d="M231.55,448.129c-3.515,6.088-11.301,8.173-17.39,4.661l0,0c-6.086-3.518-8.173-11.303-4.659-17.391
		l23.868-41.341c3.515-6.088,11.301-8.173,17.388-4.658l0,0c6.088,3.515,8.175,11.3,4.66,17.388L231.55,448.129z"/>
</g>
<g id="&#x7EC8;&#x96E8;&#x70B9;_3_">
	<path fill="#47B2FF" d="M289.55,448.129c-3.515,6.088-11.302,8.173-17.39,4.661l0,0c-6.087-3.518-8.174-11.303-4.658-17.391
		l23.867-41.341c3.516-6.088,11.302-8.173,17.389-4.658l0,0c6.088,3.515,8.175,11.3,4.66,17.388L289.55,448.129z"/>
</g>
</svg>
