<?xml version="1.0" encoding="iso-8859-1"?>
<!-- Generator: Adobe Illustrator 16.0.0, SVG Export Plug-In . SVG Version: 6.00 Build 0)  -->
<!DOCTYPE svg PUBLIC "-//W3C//DTD SVG 1.1//EN" "http://www.w3.org/Graphics/SVG/1.1/DTD/svg11.dtd">
<svg version="1.1" id="&#x56FE;&#x5C42;_1" xmlns="http://www.w3.org/2000/svg" xmlns:xlink="http://www.w3.org/1999/xlink" x="0px"
	 y="0px" width="500px" height="500px" viewBox="0 0 500 500" style="enable-background:new 0 0 500 500;" xml:space="preserve">
<g id="&#x6708;&#x4EAE;">
	<linearGradient id="SVGID_1_" gradientUnits="userSpaceOnUse" x1="340.3818" y1="27.9937" x2="340.3818" y2="281.2808">
		<stop  offset="0" stop-color="#FFDC80"/>
		<stop  offset="0.1412" stop-color="#FFD677"/>
		<stop  offset="0.3759" stop-color="#FFC75D"/>
		<stop  offset="0.6753" stop-color="#FFAE34"/>
		<stop  offset="0.9944" stop-color="#FF8F00"/>
	</linearGradient>
	<path fill="url(#SVGID_1_)" d="M356.212,100.414c0-22.385,6.729-43.189,18.26-60.529c0.241-0.361,0.483-0.723,0.735-1.104
		c3.566-4.236,3.566-6.419-2.031-8.242c-0.455-0.123-0.92-0.243-1.355-0.339c-7.647-1.446-15.542-2.205-23.615-2.205
		c-69.943,0-126.643,56.7-126.643,126.643c0,69.943,56.7,126.644,126.643,126.644c47.305,0,88.543-25.94,110.288-64.367
		c0.108-0.192,0.232-0.436,0.356-0.685c0.714-2.638,0.714-7.004-3.67-6.802c-0.252-0.028-0.494-0.055-0.742-0.083
		C399.26,203.678,356.212,157.086,356.212,100.414z"/>
</g>
<g id="cloud2">
	<g>
		<linearGradient id="SVGID_2_" gradientUnits="userSpaceOnUse" x1="284.9082" y1="371.7949" x2="284.9082" y2="171.5527">
			<stop  offset="0" stop-color="#C3DEFF"/>
			<stop  offset="0.9531" stop-color="#ECF5FF"/>
		</linearGradient>
		<path fill="url(#SVGID_2_)" d="M324.698,172.026c-54.916,0-99.493,44.21-100.108,98.974H145v101h172.363
			c2.423,0.176,4.868,0.269,7.335,0.269c55.292,0,100.119-44.823,100.119-100.122C424.817,216.854,379.99,172.026,324.698,172.026z"
			/>
		<linearGradient id="SVGID_3_" gradientUnits="userSpaceOnUse" x1="253.8184" y1="310.293" x2="253.8183" y2="91.2144">
			<stop  offset="0.2166" stop-color="#D0E5FF"/>
			<stop  offset="0.8809" stop-color="#F6FAFF"/>
		</linearGradient>
		<path fill="url(#SVGID_3_)" d="M363.358,201.27c0,60.5-49.043,109.541-109.538,109.541
			c-60.5,0-109.541-49.041-109.541-109.541c0-60.495,49.041-109.538,109.541-109.538C314.315,91.731,363.358,140.774,363.358,201.27
			z"/>
		<linearGradient id="SVGID_4_" gradientUnits="userSpaceOnUse" x1="143.7817" y1="371.7832" x2="143.7817" y2="166.5845">
			<stop  offset="0" stop-color="#CBE2FF"/>
			<stop  offset="0.8845" stop-color="#FFFFFF"/>
		</linearGradient>
		<path fill="url(#SVGID_4_)" d="M246.381,269.668c0,56.667-45.934,102.601-102.598,102.601
			c-56.667,0-102.601-45.934-102.601-102.601c0-56.662,45.934-102.599,102.601-102.599
			C200.447,167.069,246.381,213.006,246.381,269.668z"/>
	</g>
</g>
<g id="MJJ&#x96EA;&#x82B1;">
	<path fill="#C9E2FF" d="M173,419h-7.064l3.613-6.188c2.2-3.811,0.883-8.692-2.928-10.893l-0.243-0.123
		c-3.811-2.2-8.728-0.873-10.928,2.937L152,410.715l-3.451-5.975c-2.2-3.81-7.118-5.127-10.928-2.927l-0.243,0.142
		c-3.811,2.2-5.128,7.047-2.928,10.857l3.613,6.188H131c-4.418,0-8,3.582-8,8s3.582,8,8,8h6.9l-3.45,6.047
		c-2.2,3.81-0.882,8.763,2.928,10.963l0.242,0.157c3.811,2.2,8.728,0.891,10.928-2.919l3.451-5.972l3.451,5.979
		c2.2,3.81,7.118,5.129,10.929,2.929l0.241-0.14c3.811-2.2,5.129-7.188,2.929-10.997l-3.45-6.047H173c4.418,0,8-3.582,8-8
		S177.418,419,173,419z"/>
</g>
<g id="MJJ&#x96EA;&#x82B1;_1_">
	<path fill="#C9E2FF" d="M256,419h-7.064l3.613-6.188c2.2-3.811,0.883-8.692-2.928-10.893l-0.243-0.123
		c-3.811-2.2-8.728-0.873-10.928,2.937L235,410.715l-3.451-5.975c-2.2-3.81-7.118-5.127-10.928-2.927l-0.243,0.142
		c-3.811,2.2-5.128,7.047-2.928,10.857l3.613,6.188H214c-4.418,0-8,3.582-8,8s3.582,8,8,8h6.9l-3.45,6.047
		c-2.2,3.81-0.882,8.763,2.928,10.963l0.242,0.157c3.811,2.2,8.728,0.891,10.928-2.919l3.451-5.972l3.451,5.979
		c2.2,3.81,7.118,5.129,10.929,2.929l0.241-0.14c3.811-2.2,5.129-7.188,2.929-10.997l-3.45-6.047H256c4.418,0,8-3.582,8-8
		S260.418,419,256,419z"/>
</g>
<g id="MJJ&#x96EA;&#x82B1;_2_">
	<path fill="#C9E2FF" d="M339,419h-7.064l3.613-6.188c2.2-3.811,0.883-8.692-2.928-10.893l-0.243-0.123
		c-3.811-2.2-8.728-0.873-10.928,2.937l-3.45,5.981l-3.451-5.975c-2.2-3.81-7.117-5.127-10.929-2.927l-0.243,0.142
		c-3.81,2.2-5.128,7.047-2.928,10.857l3.613,6.188H297c-4.419,0-8,3.582-8,8s3.581,8,8,8h6.9l-3.45,6.047
		c-2.2,3.81-0.882,8.763,2.928,10.963l0.242,0.157c3.812,2.2,8.729,0.891,10.929-2.919l3.451-5.972l3.45,5.979
		c2.2,3.81,7.118,5.129,10.929,2.929l0.241-0.14c3.811-2.2,5.129-7.188,2.929-10.997l-3.45-6.047H339c4.418,0,8-3.582,8-8
		S343.418,419,339,419z"/>
</g>
</svg>
