<?xml version="1.0" encoding="iso-8859-1"?>
<!-- Generator: Adobe Illustrator 16.0.0, SVG Export Plug-In . SVG Version: 6.00 Build 0)  -->
<!DOCTYPE svg PUBLIC "-//W3C//DTD SVG 1.1//EN" "http://www.w3.org/Graphics/SVG/1.1/DTD/svg11.dtd">
<svg version="1.1" id="&#x56FE;&#x5C42;_1" xmlns="http://www.w3.org/2000/svg" xmlns:xlink="http://www.w3.org/1999/xlink" x="0px"
	 y="0px" width="500px" height="500px" viewBox="0 0 500 500" style="enable-background:new 0 0 500 500;" xml:space="preserve">
<g id="&#x6708;&#x4EAE;">
	<linearGradient id="SVGID_1_" gradientUnits="userSpaceOnUse" x1="346.3818" y1="14.9937" x2="346.3818" y2="268.2808">
		<stop  offset="0" stop-color="#FFDC80"/>
		<stop  offset="0.1412" stop-color="#FFD677"/>
		<stop  offset="0.3759" stop-color="#FFC75D"/>
		<stop  offset="0.6753" stop-color="#FFAE34"/>
		<stop  offset="0.9944" stop-color="#FF8F00"/>
	</linearGradient>
	<path fill="url(#SVGID_1_)" d="M362.212,87.414c0-22.385,6.729-43.189,18.26-60.529c0.241-0.361,0.483-0.723,0.735-1.104
		c3.566-4.236,3.566-6.419-2.031-8.242c-0.455-0.123-0.92-0.243-1.355-0.339c-7.647-1.446-15.542-2.205-23.615-2.205
		c-69.943,0-126.643,56.7-126.643,126.643c0,69.943,56.7,126.644,126.643,126.644c47.305,0,88.543-25.94,110.288-64.367
		c0.108-0.192,0.232-0.436,0.356-0.685c0.714-2.638,0.714-7.004-3.67-6.802c-0.252-0.028-0.494-0.055-0.742-0.083
		C405.26,190.678,362.212,144.086,362.212,87.414z"/>
</g>
<g id="cloud2">
	<g>
		<linearGradient id="SVGID_2_" gradientUnits="userSpaceOnUse" x1="278.9082" y1="356.7949" x2="278.9082" y2="156.5527">
			<stop  offset="0" stop-color="#C3DEFF"/>
			<stop  offset="0.9531" stop-color="#ECF5FF"/>
		</linearGradient>
		<path fill="url(#SVGID_2_)" d="M318.698,157.026c-54.916,0-99.493,44.21-100.108,98.974H139v101h172.363
			c2.423,0.176,4.868,0.269,7.335,0.269c55.292,0,100.119-44.823,100.119-100.122C418.817,201.854,373.99,157.026,318.698,157.026z"
			/>
		<linearGradient id="SVGID_3_" gradientUnits="userSpaceOnUse" x1="247.8188" y1="295.293" x2="247.8188" y2="76.2144">
			<stop  offset="0.2166" stop-color="#D0E5FF"/>
			<stop  offset="0.8809" stop-color="#F6FAFF"/>
		</linearGradient>
		<path fill="url(#SVGID_3_)" d="M357.358,186.27c0,60.5-49.043,109.541-109.538,109.541
			c-60.5,0-109.541-49.041-109.541-109.541c0-60.495,49.041-109.538,109.541-109.538C308.315,76.731,357.358,125.774,357.358,186.27
			z"/>
		<linearGradient id="SVGID_4_" gradientUnits="userSpaceOnUse" x1="137.7817" y1="356.7832" x2="137.7817" y2="151.5845">
			<stop  offset="0" stop-color="#CBE2FF"/>
			<stop  offset="0.8845" stop-color="#FFFFFF"/>
		</linearGradient>
		<path fill="url(#SVGID_4_)" d="M240.381,254.668c0,56.667-45.934,102.601-102.598,102.601
			c-56.667,0-102.601-45.934-102.601-102.601c0-56.662,45.934-102.599,102.601-102.599
			C194.447,152.069,240.381,198.006,240.381,254.668z"/>
	</g>
</g>
<g id="&#x6D6E;&#x5C18;">
	<linearGradient id="SVGID_5_" gradientUnits="userSpaceOnUse" x1="230.5005" y1="460" x2="230.5005" y2="372.208">
		<stop  offset="0" stop-color="#FF9B00"/>
		<stop  offset="1" stop-color="#FFD879"/>
	</linearGradient>
	<path fill="url(#SVGID_5_)" d="M338,448.5c0,6.352-5.148,11.5-11.5,11.5h-192c-6.351,0-11.5-5.148-11.5-11.5l0,0
		c0-6.352,5.149-11.5,11.5-11.5h192C332.852,437,338,442.148,338,448.5L338,448.5z M146.219,372.208
		c-9.617,0-17.414,7.797-17.414,17.413c0,9.617,7.797,17.413,17.414,17.413c9.616,0,17.413-7.796,17.413-17.413
		C163.632,380.005,155.835,372.208,146.219,372.208z M201.361,383.817c-9.617,0-17.413,7.797-17.413,17.413
		s7.796,17.413,17.413,17.413c9.616,0,17.413-7.797,17.413-17.413S210.977,383.817,201.361,383.817z M259.405,372.208
		c-9.617,0-17.414,7.797-17.414,17.413c0,9.617,7.797,17.413,17.414,17.413c9.616,0,17.413-7.796,17.413-17.413
		C276.818,380.005,269.021,372.208,259.405,372.208z M314.547,383.817c-9.617,0-17.413,7.797-17.413,17.413
		s7.796,17.413,17.413,17.413c9.616,0,17.413-7.797,17.413-17.413S324.163,383.817,314.547,383.817z"/>
</g>
</svg>
