<?xml version="1.0" encoding="iso-8859-1"?>
<!-- Generator: Adobe Illustrator 16.0.0, SVG Export Plug-In . SVG Version: 6.00 Build 0)  -->
<!DOCTYPE svg PUBLIC "-//W3C//DTD SVG 1.1//EN" "http://www.w3.org/Graphics/SVG/1.1/DTD/svg11.dtd">
<svg version="1.1" id="&#x56FE;&#x5C42;_1" xmlns="http://www.w3.org/2000/svg" xmlns:xlink="http://www.w3.org/1999/xlink" x="0px"
	 y="0px" width="500px" height="500px" viewBox="0 0 500 500" style="enable-background:new 0 0 500 500;" xml:space="preserve">
<g id="&#x96FE;&#x973E;">
	<linearGradient id="SVGID_1_" gradientUnits="userSpaceOnUse" x1="250.001" y1="412.3271" x2="250.001" y2="85.6069">
		<stop  offset="0" stop-color="#FF9000"/>
		<stop  offset="1" stop-color="#FFDB7E"/>
	</linearGradient>
	<path style="fill-rule:evenodd;clip-rule:evenodd;fill:url(#SVGID_1_)" d="M433.271,248.753
		c0.021,41.707-25.923,77.638-65.314,90.452c-39.818,12.956-82.263-0.563-107.042-35.867c-8.648-12.318-12.113-13.057-21.173-0.189
		c-28.898,41.029-82.439,52.745-124.242,28.694c-41.846-24.076-59.944-75.367-41.67-118.095
		c19.765-46.211,67.757-70.094,114.473-56.272c22.833,6.755,41.843,19.793,53.971,40.672c6.259,10.775,9.077,11.552,15.917,0.206
		c21.701-35.99,66.171-52.588,106.573-40.979C405.247,169.005,433.249,206.357,433.271,248.753z M227.609,248.51
		c0.128-35.057-29.758-65.421-64.827-65.867c-35.458-0.448-66.493,30.535-66.187,66.079c0.298,34.756,30.948,65.153,65.614,65.064
		C196.938,313.702,227.482,283.215,227.609,248.51z M338.213,182.644c-34.983,0.153-65.041,30.276-65.274,65.423
		c-0.23,34.544,30.156,65.285,64.961,65.72c35.073,0.44,66.673-31.225,66.055-66.191
		C403.334,212.286,373.176,182.491,338.213,182.644z M231.833,129.477c0.461,11.707,7.813,18.33,19.487,17.788
		c10.887-0.503,17.417-7.358,17.421-18.32c0.004-11.833-7.261-17.726-18.721-18.967
		C238.551,111.539,231.369,117.679,231.833,129.477z M231.331,366.504c-0.965,11.598,5.398,18.899,16.928,20.609
		c10.908,1.619,21.008-7.106,21.106-18.124c0.104-11.778-6.531-18.126-17.701-20.172
		C240.004,349.307,232.301,354.848,231.331,366.504z M160.121,374.234c-10.977-1.091-20.717,8.058-20.27,19.089
		c0.472,11.67,7.05,18.701,18.714,18.995c11.783,0.302,17.956-6.856,19.746-18.113C177.513,382.599,171.805,375.398,160.121,374.234
		z M338.85,374.226c-11.045-0.612-20.403,8.849-19.497,19.856c0.956,11.615,7.784,18.421,19.47,18.236
		c11.771-0.182,17.684-7.54,19.001-18.952C356.518,381.917,350.63,374.882,338.85,374.226z M177.195,104.383
		c-0.112-11.479-6.882-19.018-18.606-18.769c-11.697,0.247-18.263,8.025-17.872,19.493c0.377,11.042,7.864,16.331,18.678,17.287
		C169.967,120.952,177.307,115.526,177.195,104.383z M356.689,104.291c-0.159-11.486-6.974-18.982-18.698-18.675
		c-11.695,0.305-18.218,8.133-17.78,19.587c0.421,11.045,7.952,16.281,18.771,17.19
		C349.548,120.905,356.851,115.425,356.689,104.291z"/>
</g>
</svg>
