<?xml version="1.0" encoding="iso-8859-1"?>
<!-- Generator: Adobe Illustrator 16.0.0, SVG Export Plug-In . SVG Version: 6.00 Build 0)  -->
<!DOCTYPE svg PUBLIC "-//W3C//DTD SVG 1.1//EN" "http://www.w3.org/Graphics/SVG/1.1/DTD/svg11.dtd">
<svg version="1.1" id="&#x56FE;&#x5C42;_1" xmlns="http://www.w3.org/2000/svg" xmlns:xlink="http://www.w3.org/1999/xlink" x="0px"
	 y="0px" width="500px" height="500px" viewBox="0 0 500 500" style="enable-background:new 0 0 500 500;" xml:space="preserve">
<g id="cloud2">
	<g>
		<linearGradient id="SVGID_1_" gradientUnits="userSpaceOnUse" x1="304.4932" y1="330.7793" x2="304.4932" y2="120.8794">
			<stop  offset="0" stop-color="#C3DEFF"/>
			<stop  offset="0.9531" stop-color="#ECF5FF"/>
		</linearGradient>
		<path fill="url(#SVGID_1_)" d="M346.081,121.375C288.54,121.375,241.833,168,241.188,225H158v106h180.396
			c2.539,0,5.102,0.275,7.686,0.275c57.936,0,104.905-47.009,104.905-104.951C450.986,168.388,404.017,121.375,346.081,121.375z"/>
		<linearGradient id="SVGID_2_" gradientUnits="userSpaceOnUse" x1="271.8145" y1="266.3301" x2="271.8145" y2="36.7798">
			<stop  offset="0.2166" stop-color="#D0E5FF"/>
			<stop  offset="0.8809" stop-color="#F6FAFF"/>
		</linearGradient>
		<path fill="url(#SVGID_2_)" d="M386.59,152.097c0,63.392-51.388,114.776-114.774,114.776
			c-63.392,0-114.777-51.385-114.777-114.776c0-63.387,51.385-114.774,114.777-114.774C335.202,37.322,386.59,88.71,386.59,152.097z
			"/>
		<linearGradient id="SVGID_3_" gradientUnits="userSpaceOnUse" x1="156.5171" y1="330.7617" x2="156.5171" y2="115.7544">
			<stop  offset="0" stop-color="#CBE2FF"/>
			<stop  offset="0.8845" stop-color="#FFFFFF"/>
		</linearGradient>
		<path fill="url(#SVGID_3_)" d="M264.021,223.765c0,59.375-48.129,107.505-107.502,107.505
			c-59.375,0-107.505-48.13-107.505-107.505c0-59.371,48.13-107.503,107.505-107.503
			C215.891,116.262,264.021,164.394,264.021,223.765z"/>
	</g>
</g>
<g id="&#x7EC8;&#x96E8;&#x70B9;">
	<path fill="#47B2FF" d="M177.855,448.272c-4.426,7.667-14.231,10.293-21.898,5.87l0,0
		c-7.665-4.43-10.292-14.232-5.866-21.899l30.055-52.057c4.426-7.667,14.231-10.293,21.896-5.866l0,0
		c7.667,4.426,10.294,14.229,5.868,21.896L177.855,448.272z"/>
</g>
<g id="&#x7EC8;&#x96E8;&#x70B9;_1_">
	<path fill="#47B2FF" d="M248.855,448.272c-4.426,7.667-14.231,10.293-21.898,5.87l0,0
		c-7.665-4.43-10.292-14.232-5.866-21.899l30.055-52.057c4.427-7.667,14.231-10.293,21.896-5.866l0,0
		c7.666,4.426,10.294,14.229,5.868,21.896L248.855,448.272z"/>
</g>
<g id="&#x7EC8;&#x96E8;&#x70B9;_2_">
	<path fill="#47B2FF" d="M318.855,448.272c-4.427,7.667-14.231,10.293-21.898,5.87l0,0
		c-7.664-4.43-10.292-14.232-5.866-21.899l30.056-52.057c4.427-7.667,14.231-10.293,21.896-5.866l0,0
		c7.666,4.426,10.294,14.229,5.868,21.896L318.855,448.272z"/>
</g>
<g id="MJJ&#x96EA;&#x82B1;_1_">
	<path fill="#C9E2FF" d="M412,404h-7.064l3.613-6.188c2.2-3.811,0.883-8.692-2.928-10.893l-0.243-0.123
		c-3.811-2.2-8.728-0.873-10.928,2.937l-3.45,5.981l-3.451-5.975c-2.2-3.81-7.117-5.127-10.929-2.927l-0.243,0.142
		c-3.81,2.2-5.128,7.047-2.928,10.857l3.613,6.188H370c-4.419,0-8,3.582-8,8s3.581,8,8,8h6.9l-3.45,6.047
		c-2.2,3.81-0.882,8.763,2.928,10.963l0.242,0.157c3.812,2.2,8.729,0.891,10.929-2.919l3.451-5.972l3.45,5.979
		c2.2,3.81,7.118,5.129,10.929,2.929l0.241-0.14c3.811-2.2,5.129-7.188,2.929-10.997l-3.45-6.047H412c4.418,0,8-3.582,8-8
		S416.418,404,412,404z"/>
</g>
<g id="MJJ&#x96EA;&#x82B1;">
	<path fill="#C9E2FF" d="M124,404h-7.064l3.613-6.188c2.2-3.811,0.883-8.692-2.928-10.893l-0.243-0.123
		c-3.811-2.2-8.728-0.873-10.928,2.937L103,395.715l-3.451-5.975c-2.2-3.81-7.118-5.127-10.928-2.927l-0.243,0.142
		c-3.811,2.2-5.128,7.047-2.928,10.857L89.063,404H82c-4.418,0-8,3.582-8,8s3.582,8,8,8h6.9l-3.45,6.047
		c-2.2,3.81-0.882,8.763,2.928,10.963l0.242,0.157c3.811,2.2,8.728,0.891,10.928-2.919l3.451-5.972l3.451,5.979
		c2.2,3.81,7.118,5.129,10.929,2.929l0.241-0.14c3.811-2.2,5.129-7.188,2.929-10.997l-3.45-6.047H124c4.418,0,8-3.582,8-8
		S128.418,404,124,404z"/>
</g>
</svg>
