<?xml version="1.0" encoding="iso-8859-1"?>
<!-- Generator: Adobe Illustrator 16.0.0, SVG Export Plug-In . SVG Version: 6.00 Build 0)  -->
<!DOCTYPE svg PUBLIC "-//W3C//DTD SVG 1.1//EN" "http://www.w3.org/Graphics/SVG/1.1/DTD/svg11.dtd">
<svg version="1.1" id="&#x56FE;&#x5C42;_1" xmlns="http://www.w3.org/2000/svg" xmlns:xlink="http://www.w3.org/1999/xlink" x="0px"
	 y="0px" width="500px" height="500px" viewBox="0 0 500 500" style="enable-background:new 0 0 500 500;" xml:space="preserve">
<g id="cloud2">
	<g>
		<linearGradient id="SVGID_1_" gradientUnits="userSpaceOnUse" x1="304.3008" y1="332.7803" x2="304.3008" y2="123.1792">
			<stop  offset="0" stop-color="#C3DEFF"/>
			<stop  offset="0.9531" stop-color="#ECF5FF"/>
		</linearGradient>
		<path fill="url(#SVGID_1_)" d="M345.898,123.674c-57.432,0-104.05,46.326-104.694,103.326H158v106h180.228
			c2.533,0,5.091,0.275,7.671,0.275c57.824,0,104.704-46.97,104.704-104.802C450.603,170.648,403.723,123.674,345.898,123.674z"/>
		<linearGradient id="SVGID_2_" gradientUnits="userSpaceOnUse" x1="271.7725" y1="268.4541" x2="271.7725" y2="39.3413">
			<stop  offset="0.2166" stop-color="#D0E5FF"/>
			<stop  offset="0.8809" stop-color="#F6FAFF"/>
		</linearGradient>
		<path fill="url(#SVGID_2_)" d="M386.329,154.438c0,63.271-51.289,114.559-114.556,114.559
			c-63.271,0-114.558-51.288-114.558-114.559c0-63.266,51.287-114.555,114.558-114.555
			C335.04,39.883,386.329,91.172,386.329,154.438z"/>
		<linearGradient id="SVGID_3_" gradientUnits="userSpaceOnUse" x1="156.6958" y1="332.7617" x2="156.6958" y2="118.165">
			<stop  offset="0" stop-color="#CBE2FF"/>
			<stop  offset="0.8845" stop-color="#FFFFFF"/>
		</linearGradient>
		<path fill="url(#SVGID_3_)" d="M263.994,225.969c0,59.263-48.038,107.3-107.297,107.3c-59.263,0-107.3-48.037-107.3-107.3
			c0-59.257,48.038-107.297,107.3-107.297C215.957,118.671,263.994,166.711,263.994,225.969z"/>
	</g>
</g>
<g id="&#x7EC8;&#x96E8;&#x70B9;">
	<path fill="#47B2FF" d="M205.166,422.341c-3.397,5.885-10.923,7.9-16.808,4.506l0,0c-5.883-3.4-7.9-10.925-4.502-16.81
		l23.069-39.956c3.397-5.885,10.923-7.9,16.807-4.503l0,0c5.884,3.397,7.901,10.922,4.504,16.807L205.166,422.341z"/>
</g>
<g id="&#x7EC8;&#x96E8;&#x70B9;_1_">
	<path fill="#47B2FF" d="M324.729,422.341c-3.397,5.885-10.923,7.9-16.808,4.506l0,0c-5.883-3.4-7.9-10.925-4.503-16.81
		l23.069-39.956c3.397-5.885,10.924-7.9,16.807-4.503l0,0c5.885,3.397,7.901,10.922,4.504,16.807L324.729,422.341z"/>
</g>
<g id="&#x5927;&#x96E8;&#x6EF4;">
	<path fill="#45B1FF" d="M144.215,439.792c-4.22,7.308-13.567,9.812-20.875,5.591l0,0
		c-7.309-4.219-9.814-13.565-5.594-20.873l30.564-52.94c4.22-7.308,13.567-9.812,20.876-5.591l0,0
		c7.308,4.219,9.813,13.565,5.593,20.873L144.215,439.792z"/>
</g>
<g id="&#x5927;&#x96E8;&#x6EF4;_1_">
	<path fill="#45B1FF" d="M263.777,439.792c-4.22,7.308-13.567,9.812-20.875,5.591l0,0
		c-7.309-4.219-9.814-13.565-5.594-20.873l30.564-52.94c4.22-7.308,13.567-9.812,20.876-5.591l0,0
		c7.308,4.219,9.813,13.565,5.593,20.873L263.777,439.792z"/>
</g>
</svg>
